<svg width="48" height="48" viewBox="0 0 48 48" fill="none" xmlns="http://www.w3.org/2000/svg">
<path d="M21.5 34.625C21.5 31.7958 20.4865 29.3677 18.4594 27.3406C16.4323 25.3135 14.0042 24.3 11.175 24.3C11.175 27.1292 12.1885 29.5573 14.2156 31.5844C16.2427 33.6115 18.6708 34.625 21.5 34.625ZM21.5 25C22.2875 25 22.9219 24.7594 23.4031 24.2781C23.8844 23.7969 24.125 23.1625 24.125 22.375V22.025C24.3583 22.2292 24.6208 22.3604 24.9125 22.4187C25.2042 22.4771 25.4813 22.5063 25.7437 22.5063C26.5312 22.5063 27.1656 22.2656 27.6469 21.7844C28.1281 21.3031 28.3687 20.6687 28.3687 19.8812C28.3687 19.2979 28.2375 18.8167 27.975 18.4375C27.7125 18.0583 27.3625 17.7083 26.925 17.3875C27.3625 17.2125 27.7125 16.899 27.975 16.4469C28.2375 15.9948 28.3687 15.4771 28.3687 14.8938C28.3687 14.1063 28.1281 13.4719 27.6469 12.9906C27.1656 12.5094 26.5312 12.2688 25.7437 12.2688C25.4813 12.2688 25.2042 12.2979 24.9125 12.3562C24.6208 12.4146 24.3583 12.5458 24.125 12.75V12.4C24.125 11.6125 23.8844 10.9781 23.4031 10.4969C22.9219 10.0156 22.2875 9.775 21.5 9.775C20.7125 9.775 20.0781 10.0156 19.5969 10.4969C19.1156 10.9781 18.875 11.6125 18.875 12.4V12.75C18.6417 12.5458 18.3792 12.4146 18.0875 12.3562C17.7958 12.2979 17.5187 12.2688 17.2562 12.2688C16.4688 12.2688 15.8344 12.5094 15.3531 12.9906C14.8719 13.4719 14.6312 14.1063 14.6312 14.8938C14.6312 15.4771 14.7552 15.9656 15.0031 16.3594C15.251 16.7531 15.6083 17.0958 16.075 17.3875C15.6083 17.5917 15.251 17.9125 15.0031 18.35C14.7552 18.7875 14.6312 19.2979 14.6312 19.8812C14.6312 20.6687 14.8719 21.3031 15.3531 21.7844C15.8344 22.2656 16.4688 22.5063 17.2562 22.5063C17.5187 22.5063 17.8031 22.4771 18.1094 22.4187C18.4156 22.3604 18.6708 22.2292 18.875 22.025V22.375C18.875 23.1625 19.1156 23.7969 19.5969 24.2781C20.0781 24.7594 20.7125 25 21.5 25ZM21.5 20.8C20.5375 20.8 19.7281 20.4719 19.0719 19.8156C18.4156 19.1594 18.0875 18.35 18.0875 17.3875C18.0875 16.425 18.4156 15.6156 19.0719 14.9594C19.7281 14.3031 20.5375 13.975 21.5 13.975C22.4625 13.975 23.2719 14.3031 23.9281 14.9594C24.5844 15.6156 24.9125 16.425 24.9125 17.3875C24.9125 18.35 24.5844 19.1594 23.9281 19.8156C23.2719 20.4719 22.4625 20.8 21.5 20.8ZM21.5 34.625C24.3292 34.625 26.7573 33.6115 28.7844 31.5844C30.8115 29.5573 31.825 27.1292 31.825 24.3C28.9958 24.3 26.5677 25.3135 24.5406 27.3406C22.5135 29.3677 21.5 31.7958 21.5 34.625ZM6.625 39C5.925 39 5.3125 38.7375 4.7875 38.2125C4.2625 37.6875 4 37.075 4 36.375V6.625C4 5.925 4.2625 5.3125 4.7875 4.7875C5.3125 4.2625 5.925 4 6.625 4H36.375C37.075 4 37.6875 4.2625 38.2125 4.7875C38.7375 5.3125 39 5.925 39 6.625V36.375C39 37.075 38.7375 37.6875 38.2125 38.2125C37.6875 38.7375 37.075 39 36.375 39H6.625ZM6.625 36.375H36.375V6.625H6.625V36.375ZM6.625 36.375V6.625V36.375Z" fill="white"/>
</svg>
